<svg width="100" height="100" viewBox="0 0 100 100" fill="none" xmlns="http://www.w3.org/2000/svg">
<path fill-rule="evenodd" clip-rule="evenodd" d="M0 50V100H8.15603H16.3121V63.6582V27.3163L33.1603 44.1539L50.0092 60.9915L75.0043 35.9887L100 10.9858V5.49291V0H94.4986H88.9972L69.8582 19.1489C59.3319 29.6809 50.3957 38.2979 50 38.2979C49.6043 38.2979 40.6681 29.6809 30.1418 19.1489L11.0028 0H5.50142H0V50ZM74.8241 46.0979L50.0106 70.9192L36.3525 57.2752L22.695 43.6305V54.978V66.3262L36 79.617C43.317 86.9269 49.6177 92.9078 50.0014 92.9078C50.3844 92.9078 58.1206 85.4901 67.1929 76.4241L83.6879 59.9404V79.9702V100H91.844H100V60.6383C100 38.9894 99.9184 21.2766 99.8191 21.2766C99.7191 21.2766 88.4716 32.4461 74.8241 46.0979Z" fill="black"/>
</svg>
