<svg width="100" height="101" viewBox="0 0 100 101" fill="none" xmlns="http://www.w3.org/2000/svg">
<path fill-rule="evenodd" clip-rule="evenodd" d="M46.2807 0.0622091C38.4854 0.989493 32.6481 2.68568 26.807 5.72052C21.857 8.29225 17.8158 11.3565 13.6677 15.684C7.07325 22.5629 2.72809 30.8103 0.664816 40.3645C-0.230224 44.5088 -0.219239 55.8587 0.68395 60.0862C4.95576 80.084 19.8334 95.0442 39.8981 99.5186C44.7645 100.604 55.236 100.604 60.0996 99.5194C80.2118 95.0339 95.0373 80.1272 99.3183 60.0862C100.237 55.7868 100.225 44.5112 99.2967 40.2533C97.2214 30.7271 92.9081 22.5537 86.3346 15.6878C76.9402 5.87678 65.0606 0.553666 51.4514 0.0579567C49.2896 -0.0210591 46.9628 -0.0189327 46.2807 0.0622091ZM40.0799 34.9287C45.3389 40.1905 49.8034 44.4957 50.0011 44.4957C50.1989 44.4957 54.6634 40.1905 59.9224 34.9287L69.4844 25.3618H72.2329H74.9815V28.1061V30.8504L62.4934 43.342L50.0058 55.8335L41.5879 47.4214L33.1704 39.0092V57.1658V75.3225H29.0956H25.0208V50.3421V25.3618H27.7694H30.5179L40.0799 34.9287ZM74.9815 55.6571V75.3225H70.9067H66.8319V65.3154V55.3084L58.5908 63.5438C54.0582 68.0732 50.1932 71.7791 50.0019 71.7791C49.8102 71.7791 46.6623 68.7911 43.0067 65.139L36.3594 58.4988V52.8292V47.1599L43.1828 53.9768L50.0065 60.7935L62.4034 48.3926C69.2218 41.5721 74.8412 35.9917 74.8911 35.9917C74.9407 35.9917 74.9815 44.8411 74.9815 55.6571Z" fill="black"/>
</svg>
