<svg width="100" height="100" viewBox="0 0 100 100" fill="none" xmlns="http://www.w3.org/2000/svg">
<path d="M100 50C100 77.6142 77.6142 100 50 100C22.3858 100 0 77.6142 0 50C0 22.3858 22.3858 0 50 0C77.6142 0 100 22.3858 100 50Z" fill="white"/>
<path fill-rule="evenodd" clip-rule="evenodd" d="M46.3925 4.47959C35.6945 5.30132 25.7253 9.84689 18.0981 17.3804C11.2882 24.1068 7.12547 31.7197 5.09917 41.1525C4.167 45.4937 4.08829 53.9979 4.94111 58.3054C6.83461 67.8721 10.9115 75.4347 17.9038 82.3529C24.7775 89.1537 31.4453 92.794 40.8234 94.865C45.2255 95.8373 53.948 95.9241 58.3627 95.0402C67.6116 93.1875 75.3715 89.0394 82.1037 82.3483C90.1283 74.3733 94.5935 64.8038 95.4985 53.6429C96.8566 36.8913 88.9172 20.8856 74.6438 11.5992C66.466 6.27884 56.3041 3.71811 46.3925 4.47959ZM61.8382 15.769C61.8382 17.0293 61.8213 17.0471 60.5235 17.1456L59.2088 17.245L56.3841 23.723L51.1496 23.9111V27.1239H56.672C61.1149 27.1239 62.3969 27.2262 63.2309 27.6476C64.4284 28.2527 65.6527 29.3089 66.0841 30.1089C66.2487 30.4144 66.9641 34.6998 67.6738 39.6318C68.8395 47.7335 68.9636 49.2273 68.9613 55.1089C68.9577 64.5139 68.1729 67.4491 65.2086 69.1443C63.9535 69.8621 63.834 69.8676 49.922 69.8731C36.6001 69.878 35.838 69.8465 34.6486 69.2396C31.6493 67.7095 31.3326 66.5166 31.1635 56.1127L31.0268 47.6913L32.3166 39.0329C33.7508 29.407 33.9017 28.9869 36.3549 27.7995C37.5987 27.1974 38.3381 27.1239 43.1545 27.1239H48.5584V23.8849L43.2141 23.8788L40.3709 17.0831H39.1203C37.8772 17.0831 37.8698 17.0753 37.8698 15.7875V14.4919H61.8382V15.769ZM43.376 17.3976C43.376 17.5709 43.7339 18.5221 44.1718 19.5117L44.9673 21.3109L54.7727 21.1318L55.5523 19.2143C55.9811 18.1597 56.3319 17.2489 56.3319 17.19C56.3319 17.1313 53.4168 17.0831 49.854 17.0831C45.8781 17.0831 43.376 17.2045 43.376 17.3976ZM48.3819 30.8341C46.7186 32.497 47.7959 35.0302 50.0833 34.8349C52.4934 34.6289 53.2335 31.6024 51.1385 30.5193C49.8491 29.8524 49.3008 29.9149 48.3819 30.8341ZM36.1628 38.0554C35.8153 38.4402 35.4652 40.1669 35.072 43.4347C34.5055 48.1448 34.5064 48.2569 35.1098 48.698C35.6145 49.0673 38.3206 49.1489 50.0276 49.1489C63.4939 49.1489 64.3604 49.1142 64.8672 48.5539C65.3696 47.9987 65.3625 47.636 64.7607 43.1286C64.2726 39.4737 63.9811 38.1999 63.5626 37.8935C63.1418 37.5851 59.8656 37.4886 49.8423 37.4886C37.7127 37.4886 36.6341 37.5333 36.1628 38.0554ZM37.5209 59.1647C36.4641 60.2216 36.3177 61.3167 37.0448 62.7231C37.9851 64.5411 40.3913 64.7951 41.9463 63.24C43.7304 61.4557 42.2508 58.218 39.6512 58.218C38.7751 58.218 38.2219 58.4638 37.5209 59.1647ZM58.1205 58.9468C57.6184 59.3831 57.2048 60.1594 57.0898 60.8814C56.9185 61.9574 57.0254 62.2152 58.081 63.2708C59.1365 64.3264 59.3944 64.4333 60.4703 64.2619C62.0691 64.0073 63.1337 62.7739 63.1337 61.1755C63.1337 58.6371 60.0532 57.2677 58.1205 58.9468ZM41.4326 71.7028C41.4326 71.8158 40.3868 73.9293 39.1087 76.3993L36.7847 80.8908H33.6024C31.8521 80.8908 30.4201 80.7998 30.4201 80.6887C30.4201 80.5773 32.0536 78.4638 34.0501 75.9922L37.68 71.4978H39.5563C40.5882 71.4978 41.4326 71.5901 41.4326 71.7028ZM65.8059 75.8665C67.7208 78.2497 69.2878 80.3551 69.2878 80.5452C69.2878 80.7654 68.1826 80.8908 66.237 80.8908H63.1859L60.8927 76.5454C59.6311 74.1553 58.5992 72.0419 58.5992 71.8489C58.5992 71.6354 59.3289 71.5046 60.4616 71.5156L62.324 71.5331L65.8059 75.8665Z" fill="#0067AF"/>
</svg>
