<svg width="100" height="100" viewBox="0 0 100 100" fill="none" xmlns="http://www.w3.org/2000/svg">
<path fill-rule="evenodd" clip-rule="evenodd" d="M46.0508 0.144318C34.3335 1.04434 23.4143 6.02302 15.0605 14.2744C7.60167 21.6416 3.04231 29.9799 0.822936 40.3115C-0.19806 45.0664 -0.284266 54.3809 0.649814 59.0988C2.72373 69.577 7.18908 77.8603 14.8476 85.4375C22.3763 92.8864 29.6794 96.8736 39.9511 99.1419C44.7726 100.207 54.3262 100.302 59.1616 99.3338C69.2917 97.3046 77.791 92.7612 85.1647 85.4326C93.9538 76.6977 98.8446 66.2164 99.8357 53.9921C101.323 35.6443 92.6274 18.1136 76.9939 7.94227C68.0369 2.115 56.9067 -0.68972 46.0508 0.144318ZM62.9682 12.5094C62.9682 13.8898 62.9497 13.9093 61.5282 14.0172L60.0882 14.1261L58.5415 17.6737L56.9944 21.2212L54.1279 21.3241L51.2611 21.4274V23.1866V24.9462H57.3098C62.176 24.9462 63.5801 25.0583 64.4936 25.5199C65.8052 26.1825 67.1461 27.3394 67.6187 28.2157C67.7989 28.5502 68.5826 33.244 69.3598 38.6459C70.6366 47.5195 70.7725 49.1557 70.77 55.5977C70.7661 65.8988 69.9065 69.1137 66.6598 70.9705C65.2851 71.7566 65.1542 71.7627 49.9166 71.7687C35.3254 71.774 34.4906 71.7396 33.1879 71.0748C29.9029 69.3989 29.5559 68.0923 29.3707 56.6971L29.221 47.4734L30.6337 37.99C32.2045 27.4469 32.3699 26.9868 35.0568 25.6862C36.4191 25.0267 37.229 24.9462 42.5042 24.9462H48.423V23.1724V21.3986L45.4963 21.3951L42.5695 21.3919L41.0125 17.6701L39.4555 13.9487H38.0857C36.7242 13.9487 36.716 13.9402 36.716 12.5297V11.1106H49.8421H62.9682V12.5094ZM42.7469 14.2932C42.7469 14.483 43.1389 15.5249 43.6185 16.6087L44.4898 18.5794L49.8595 18.4811L55.2295 18.3832L56.0834 16.283C56.5531 15.1279 56.9373 14.1303 56.9373 14.0658C56.9373 14.0015 53.7444 13.9487 49.8421 13.9487C45.4874 13.9487 42.7469 14.0817 42.7469 14.2932ZM48.2297 29.01C46.408 30.8313 47.5879 33.6059 50.0932 33.392C52.733 33.1663 53.5436 29.8515 51.2491 28.6651C49.8368 27.9347 49.2362 28.0032 48.2297 29.01ZM34.8464 36.9193C34.4658 37.3408 34.0823 39.232 33.6516 42.8112C33.0311 47.9701 33.0322 48.0928 33.6931 48.576C34.2458 48.9804 37.2098 49.0698 50.0322 49.0698C64.7817 49.0698 65.7307 49.0318 66.2859 48.4181C66.8361 47.8101 66.8283 47.4127 66.1691 42.4759C65.6345 38.4728 65.3152 37.0775 64.8569 36.7419C64.3961 36.4042 60.8077 36.2985 49.8293 36.2985C36.544 36.2985 35.3626 36.3475 34.8464 36.9193ZM36.3339 60.04C35.1764 61.1976 35.016 62.397 35.8124 63.9374C36.8423 65.9286 39.4778 66.2068 41.181 64.5036C43.135 62.5492 41.5145 59.003 38.6672 59.003C37.7076 59.003 37.1016 59.2723 36.3339 60.04ZM58.8962 59.8013C58.3464 60.2791 57.8933 61.1295 57.7674 61.9202C57.5797 63.0987 57.6968 63.3811 58.853 64.5373C60.0091 65.6934 60.2915 65.8105 61.47 65.6228C63.2211 65.344 64.3872 63.9931 64.3872 62.2423C64.3872 59.4621 61.0131 57.9622 58.8962 59.8013ZM40.6184 73.7727C40.6184 73.8965 39.4728 76.2113 38.073 78.9167L35.5276 83.8362H32.0421C30.1249 83.8362 28.5566 83.7365 28.5566 83.6148C28.5566 83.4928 30.3456 81.178 32.5323 78.4708L36.5081 73.5482H38.5632C39.6935 73.5482 40.6184 73.6493 40.6184 73.7727ZM67.3139 78.3331C69.4113 80.9435 71.1276 83.2494 71.1276 83.4576C71.1276 83.6989 69.9172 83.8362 67.7861 83.8362H64.4443L61.9326 79.0767C60.5508 76.459 59.4206 74.1441 59.4206 73.9327C59.4206 73.6989 60.2198 73.5556 61.4604 73.5677L63.5003 73.5868L67.3139 78.3331Z" fill="#0067AF"/>
</svg>
